HIERARCHY
ROOT Junyuan_V1:Solving:Hips
{
	OFFSET 0.000000 0.000000 0.000000
	CHANNELS 6 Xposition Yposition Zposition Xrotation Yrotation Zrotation
	JOINT Junyuan_V1:Solving:Spine
	{
		OFFSET 0.000000 -11.180205 2.228564
		CHANNELS 6 Xposition Yposition Zposition Xrotation Yrotation Zrotation
		JOINT Junyuan_V1:Solving:Spine1
		{
			OFFSET 0.000000 -8.682996 1.531049
			CHANNELS 6 Xposition Yposition Zposition Xrotation Yrotation Zrotation
			JOINT Junyuan_V1:Solving:Spine2
			{
				OFFSET 0.000000 -8.783394 0.768450
				CHANNELS 6 Xposition Yposition Zposition Xrotation Yrotation Zrotation
				JOINT Junyuan_V1:Solving:Spine3
				{
					OFFSET 0.000000 -8.816944 0.000000
					CHANNELS 6 Xposition Yposition Zposition Xrotation Yrotation Zrotation
					JOINT Junyuan_V1:Solving:Neck
					{
						OFFSET 0.000000 -11.336071 -1.133605
						CHANNELS 6 Xposition Yposition Zposition Xrotation Yrotation Zrotation
						JOINT Junyuan_V1:Solving:Neck1
						{
							OFFSET 0.000000 -7.643246 -0.668695
							CHANNELS 6 Xposition Yposition Zposition Xrotation Yrotation Zrotation
							JOINT Junyuan_V1:Solving:Head
							{
								OFFSET 0.000000 -7.555870 -1.332303
								CHANNELS 6 Xposition Yposition Zposition Xrotation Yrotation Zrotation
								JOINT Junyuan_V1:Solving:HeadEnd
								{
									OFFSET 0.000000 -9.728081 0.000002
									CHANNELS 6 Xposition Yposition Zposition Xrotation Yrotation Zrotation
									End Site
									{
										OFFSET 0.000000 -9.728081 0.000002
									}
								}
							}
						}
					}
					JOINT Junyuan_V1:Solving:RightShoulder
					{
						OFFSET 0.000000 -8.097195 -5.270916
						CHANNELS 6 Xposition Yposition Zposition Xrotation Yrotation Zrotation
						JOINT Junyuan_V1:Solving:RightArm
						{
							OFFSET -20.762394 -0.000008 0.000000
							CHANNELS 6 Xposition Yposition Zposition Xrotation Yrotation Zrotation
							JOINT Junyuan_V1:Solving:RightForeArm
							{
								OFFSET -29.048946 -0.000008 0.000000
								CHANNELS 6 Xposition Yposition Zposition Xrotation Yrotation Zrotation
								JOINT Junyuan_V1:Solving:RightHand
								{
									OFFSET -22.031235 -0.000008 0.000000
									CHANNELS 6 Xposition Yposition Zposition Xrotation Yrotation Zrotation
									JOINT Junyuan_V1:Solving:RightHandThumb1
									{
										OFFSET -3.579254 2.890213 -2.661497
										CHANNELS 6 Xposition Yposition Zposition Xrotation Yrotation Zrotation
										End Site
										{
											OFFSET -5.229485 0.000000 -5.277840
										}
									}
									JOINT Junyuan_V1:Solving:RightHandMiddle1
									{
										OFFSET -9.544678 -0.000004 0.061184
										CHANNELS 6 Xposition Yposition Zposition Xrotation Yrotation Zrotation
										End Site
										{
											OFFSET -7.429878 -0.000004 0.000000
										}
									}
								}
							}
						}
					}
					JOINT Junyuan_V1:Solving:LeftShoulder
					{
						OFFSET 0.000000 -8.097195 -5.270916
						CHANNELS 6 Xposition Yposition Zposition Xrotation Yrotation Zrotation
						JOINT Junyuan_V1:Solving:LeftArm
						{
							OFFSET 20.762394 -0.000008 0.000000
							CHANNELS 6 Xposition Yposition Zposition Xrotation Yrotation Zrotation
							JOINT Junyuan_V1:Solving:LeftForeArm
							{
								OFFSET 29.048946 -0.000008 0.000000
								CHANNELS 6 Xposition Yposition Zposition Xrotation Yrotation Zrotation
								JOINT Junyuan_V1:Solving:LeftHand
								{
									OFFSET 22.031235 -0.000008 0.000000
									CHANNELS 6 Xposition Yposition Zposition Xrotation Yrotation Zrotation
									JOINT Junyuan_V1:Solving:LeftHandThumb1
									{
										OFFSET 3.579254 2.890213 -2.661497
										CHANNELS 6 Xposition Yposition Zposition Xrotation Yrotation Zrotation
										End Site
										{
											OFFSET 5.229485 0.000000 -5.277840
										}
									}
									JOINT Junyuan_V1:Solving:LeftHandMiddle1
									{
										OFFSET 9.544678 -0.000004 0.061184
										CHANNELS 6 Xposition Yposition Zposition Xrotation Yrotation Zrotation
										End Site
										{
											OFFSET 7.429878 -0.000004 0.000000
										}
									}
								}
							}
						}
					}
				}
			}
		}
	}
	JOINT Junyuan_V1:Solving:RightUpLeg
	{
		OFFSET -10.825166 0.000000 0.000000
		CHANNELS 6 Xposition Yposition Zposition Xrotation Yrotation Zrotation
		JOINT Junyuan_V1:Solving:RightLeg
		{
			OFFSET 0.000000 43.678444 -0.000006
			CHANNELS 6 Xposition Yposition Zposition Xrotation Yrotation Zrotation
			JOINT Junyuan_V1:Solving:RightFoot
			{
				OFFSET 0.000000 36.488441 -0.000006
				CHANNELS 6 Xposition Yposition Zposition Xrotation Yrotation Zrotation
				JOINT Junyuan_V1:Solving:RightForeFoot
				{
					OFFSET 0.000000 3.967834 -0.000000
					CHANNELS 6 Xposition Yposition Zposition Xrotation Yrotation Zrotation
					JOINT Junyuan_V1:Solving:RightToeBase
					{
						OFFSET 0.000000 0.000000 -15.539299
						CHANNELS 6 Xposition Yposition Zposition Xrotation Yrotation Zrotation
						JOINT Junyuan_V1:Solving:RightToeBaseEnd
						{
							OFFSET 0.000000 0.000000 -3.486985
							CHANNELS 6 Xposition Yposition Zposition Xrotation Yrotation Zrotation
							End Site
							{
								OFFSET 0.000000 -3.486992 0.000000
							}
						}
					}
				}
			}
		}
	}
	JOINT Junyuan_V1:Solving:LeftUpLeg
	{
		OFFSET 10.825166 0.000000 0.000000
		CHANNELS 6 Xposition Yposition Zposition Xrotation Yrotation Zrotation
		JOINT Junyuan_V1:Solving:LeftLeg
		{
			OFFSET 0.000000 43.678444 -0.000006
			CHANNELS 6 Xposition Yposition Zposition Xrotation Yrotation Zrotation
			JOINT Junyuan_V1:Solving:LeftFoot
			{
				OFFSET 0.000000 36.488441 -0.000006
				CHANNELS 6 Xposition Yposition Zposition Xrotation Yrotation Zrotation
				JOINT Junyuan_V1:Solving:LeftForeFoot
				{
					OFFSET 0.000000 3.967834 -0.000000
					CHANNELS 6 Xposition Yposition Zposition Xrotation Yrotation Zrotation
					JOINT Junyuan_V1:Solving:LeftToeBase
					{
						OFFSET 0.000000 0.000000 -15.539299
						CHANNELS 6 Xposition Yposition Zposition Xrotation Yrotation Zrotation
						JOINT Junyuan_V1:Solving:LeftToeBaseEnd
						{
							OFFSET 0.000000 0.000000 -3.974441
							CHANNELS 6 Xposition Yposition Zposition Xrotation Yrotation Zrotation
							End Site
							{
								OFFSET 0.000000 -3.974442 0.000000
							}
						}
					}
				}
			}
		}
	}
}
MOTION
Frames: 4
Frame Time: 0.041667
-4.602646 -29.363117 -87.958344 93.181587 -0.874328 -2.429245 -0.000000 -11.180185 2.228556 12.939280 -0.884230 2.846432 0.000000 -8.682981 1.531056 0.507763 -0.265151 0.509443 0.000000 -8.783390 0.768449 0.551477 -7.984253 1.883796 0.000001 -8.816925 0.000014 2.105536 -0.942177 2.382066 0.000001 -11.336046 -1.133641 -11.628719 -4.698598 -0.256357 0.000001 -7.643227 -0.668701 1.424919 8.239664 2.148747 -0.000001 -7.555864 -1.332301 6.071128 0.245785 1.879509 0.000001 -9.728081 0.000010 0.000003 -0.000002 -0.000001 0.000001 -8.097179 -5.270936 0.000001 17.691493 23.346218 -20.762381 0.000009 0.000001 -72.342065 -15.136696 -109.216432 -29.048948 -0.000031 -0.000006 -258.201559 -41.025784 -252.347650 -22.031260 -0.000011 -0.000007 -3.235172 15.625091 11.852087 -3.579270 2.890181 -2.661490 0.000002 -0.000003 0.000009 -9.544683 -0.000019 0.061195 -0.000005 -0.000002 0.000003 0.000001 -8.097176 -5.270937 -0.000014 -25.312792 -17.410542 20.762390 -0.000025 -0.000005 -6.713138 55.585715 83.816229 29.048954 -0.000010 -0.000025 -23.807343 68.455209 22.312119 22.031260 -0.000015 -0.000011 1.163850 3.338055 -19.234547 3.579233 2.890213 -2.661494 0.000007 0.000009 -0.000008 9.544678 0.000001 0.061187 0.000001 0.000002 -0.000000 -10.825169 0.000009 -0.000009 10.406771 9.021876 -0.903024 -0.000003 43.678436 -0.000020 15.019376 -0.000000 -0.000000 0.000003 36.488415 -0.000008 -7.759465 7.341843 -9.261229 -0.000007 3.967827 0.000002 0.000001 -0.000004 -0.000002 -0.000004 -0.000009 -15.539298 -6.939284 -0.000001 -0.000001 0.000000 -0.000008 -3.486991 -0.000001 0.000000 -0.000003 10.825169 -0.000005 -0.000004 -11.618130 7.245717 4.199736 -0.000000 43.678440 -0.000006 5.707515 0.000002 0.000000 -0.000001 36.488445 -0.000000 10.869924 5.902297 2.800448 0.000001 3.967827 0.000001 0.000001 -0.000002 -0.000000 0.000001 -0.000003 -15.539301 -8.137769 -0.000002 -0.000001 -0.000001 -0.000000 -3.974440 -0.000000 0.000001 0.000000 
-4.592666 -29.357964 -87.964317 93.201661 -0.830561 -2.427214 0.000001 -11.180198 2.228570 12.937576 -0.886705 2.802325 -0.000000 -8.683000 1.531048 0.508108 -0.262048 0.498446 -0.000000 -8.783407 0.768461 0.550038 -7.948305 1.878009 -0.000001 -8.816930 0.000007 2.113178 -0.939301 2.399661 -0.000000 -11.336088 -1.133595 -11.626159 -4.700332 -0.259133 0.000001 -7.643257 -0.668698 1.418761 8.244192 2.158111 -0.000000 -7.555851 -1.332304 6.067761 0.246592 1.871240 0.000001 -9.728081 -0.000004 0.000003 -0.000000 -0.000001 -0.000001 -8.097198 -5.270913 0.000003 17.709229 23.374840 -20.762396 -0.000035 -0.000003 -72.311370 -14.931478 -109.190163 -29.048950 -0.000013 -0.000011 -258.202051 -40.438374 -252.150258 -22.031244 -0.000017 -0.000002 -3.173766 15.682726 11.592293 -3.579276 2.890206 -2.661501 0.000006 -0.000002 0.000001 -9.544681 -0.000009 0.061187 -0.000002 -0.000002 -0.000003 0.000001 -8.097198 -5.270913 -0.000014 -25.305955 -17.422448 20.762388 -0.000006 0.000012 -6.728644 55.627024 83.831952 29.048931 -0.000006 -0.000017 -23.935223 68.407937 22.427160 22.031254 -0.000014 -0.000002 1.160103 3.361154 -19.054966 3.579273 2.890206 -2.661484 0.000002 0.000005 -0.000004 9.544692 -0.000016 0.061192 0.000001 0.000000 -0.000001 -10.825168 -0.000003 0.000009 10.422210 9.041620 -0.884877 -0.000003 43.678444 -0.000026 14.940749 0.000001 0.000001 -0.000004 36.488438 -0.000005 -7.725680 7.284837 -9.304738 -0.000000 3.967827 -0.000002 0.000001 -0.000002 0.000001 0.000000 -0.000009 -15.539300 -6.890256 -0.000003 0.000001 0.000005 -0.000007 -3.486978 0.000003 -0.000001 0.000000 10.825166 0.000014 0.000006 -11.633386 7.216902 4.199316 0.000002 43.678455 -0.000006 5.720409 0.000003 -0.000000 -0.000001 36.488445 -0.000006 10.878520 5.894744 2.752457 0.000003 3.967827 -0.000001 -0.000001 0.000001 -0.000000 0.000001 -0.000003 -15.539301 -8.112649 0.000000 0.000000 0.000000 -0.000008 -3.974442 -0.000000 0.000001 0.000000 
-4.586880 -29.353020 -87.968773 93.221270 -0.766204 -2.431930 0.000001 -11.180212 2.228561 12.938866 -0.895485 2.787042 -0.000001 -8.683021 1.531046 0.501771 -0.258057 0.479550 -0.000001 -8.783389 0.768441 0.553453 -7.923730 1.862614 0.000000 -8.816941 0.000001 2.115018 -0.938310 2.418472 -0.000001 -11.336068 -1.133628 -11.623818 -4.673905 -0.258893 0.000000 -7.643264 -0.668685 1.417905 8.231583 2.149394 0.000001 -7.555860 -1.332296 6.064311 0.247811 1.866846 -0.000000 -9.728081 0.000003 0.000003 -0.000001 0.000000 -0.000001 -8.097202 -5.270935 -0.000003 17.719131 23.415844 -20.762392 -0.000032 -0.000009 -72.263627 -14.705727 -109.161552 -29.048929 -0.000001 0.000001 -258.171588 -40.035383 -251.966143 -22.031254 -0.000010 0.000001 -3.105263 15.621705 11.390260 -3.579246 2.890227 -2.661499 0.000001 0.000005 0.000012 -9.544662 -0.000004 0.061180 -0.000000 0.000003 0.000001 -0.000002 -8.097218 -5.270933 -0.000019 -25.295283 -17.423918 20.762388 -0.000022 0.000018 -6.720448 55.724317 83.817063 29.048939 -0.000010 -0.000016 -23.952799 68.409030 22.444002 22.031244 -0.000029 0.000010 1.158298 3.353330 -19.068553 3.579273 2.890211 -2.661514 0.000002 0.000012 -0.000004 9.544705 0.000001 0.061192 0.000001 0.000011 -0.000003 -10.825165 -0.000009 -0.000001 10.398742 9.234009 -0.829265 0.000002 43.678455 -0.000021 14.946851 -0.000000 0.000002 -0.000001 36.488438 -0.000008 -7.719463 7.023177 -9.328964 0.000003 3.967827 -0.000007 0.000002 0.000001 0.000002 -0.000001 -0.000013 -15.539297 -6.912317 -0.000001 0.000000 0.000003 -0.000007 -3.486987 0.000000 0.000003 -0.000002 10.825169 0.000009 -0.000001 -11.639836 7.122899 4.198743 -0.000000 43.678471 -0.000006 5.726471 0.000001 0.000000 0.000001 36.488434 0.000001 10.887415 5.917438 2.709674 0.000000 3.967827 0.000001 0.000000 -0.000000 0.000001 -0.000000 -0.000007 -15.539297 -8.091350 0.000001 -0.000002 -0.000001 -0.000008 -3.974442 0.000000 -0.000001 -0.000001 
-4.579142 -29.346544 -87.975044 93.231823 -0.696738 -2.443678 -0.000000 -11.180187 2.228565 12.946160 -0.900654 2.768897 0.000000 -8.683001 1.531049 0.505195 -0.255758 0.471143 -0.000000 -8.783395 0.768434 0.548155 -7.914717 1.857578 -0.000000 -8.816937 -0.000008 2.115742 -0.940781 2.421519 0.000001 -11.336063 -1.133615 -11.622396 -4.666865 -0.251857 -0.000001 -7.643229 -0.668697 1.426678 8.240293 2.137002 0.000002 -7.555853 -1.332299 6.056946 0.249567 1.855810 -0.000005 -9.728088 0.000001 0.000002 0.000000 -0.000003 0.000003 -8.097187 -5.270931 -0.000000 17.739191 23.444744 -20.762377 -0.000010 0.000001 -72.210843 -14.516650 -109.113788 -29.048935 -0.000015 -0.000012 -258.187216 -39.655972 -251.854975 -22.031248 -0.000011 -0.000008 -3.102398 15.713579 11.316802 -3.579252 2.890228 -2.661491 0.000001 -0.000005 0.000002 -9.544687 0.000013 0.061188 -0.000002 -0.000001 -0.000003 0.000001 -8.097187 -5.270934 -0.000011 -25.274056 -17.431746 20.762394 0.000001 0.000018 -6.722864 55.827975 83.822540 29.048952 -0.000015 -0.000012 -23.907964 68.423824 22.403410 22.031260 -0.000017 -0.000012 1.158516 3.350117 -19.088827 3.579252 2.890204 -2.661502 -0.000003 0.000002 -0.000003 9.544670 -0.000008 0.061186 -0.000003 0.000008 0.000000 -10.825164 0.000004 0.000000 10.404253 9.232685 -0.794055 0.000002 43.678432 -0.000014 14.903626 0.000001 0.000001 0.000000 36.488422 -0.000020 -7.704637 6.974859 -9.361767 -0.000003 3.967834 -0.000003 -0.000001 -0.000001 0.000002 -0.000002 -0.000011 -15.539315 -6.887998 -0.000002 -0.000001 0.000003 -0.000008 -3.486984 -0.000001 0.000003 0.000001 10.825166 0.000017 0.000001 -11.629880 7.034017 4.206220 -0.000001 43.678448 -0.000004 5.716684 -0.000001 -0.000000 -0.000001 36.488441 -0.000005 10.915024 5.925475 2.641550 -0.000000 3.967827 -0.000003 -0.000001 -0.000002 -0.000001 -0.000001 0.000007 -15.539304 -8.129347 -0.000000 0.000002 -0.000001 -0.000008 -3.974441 -0.000000 -0.000001 0.000000 
